<?xml version="1.0" encoding="UTF-8" standalone="no"?><svg xmlns="http://www.w3.org/2000/svg" xmlns:xlink="http://www.w3.org/1999/xlink" contentScriptType="application/ecmascript" contentStyleType="text/css" height="718px" preserveAspectRatio="none" style="width:1126px;height:718px;" version="1.1" viewBox="0 0 1126 718" width="1126px" zoomAndPan="magnify"><defs><filter height="300%" id="f11a0x7kyrswdr" width="300%" x="-1" y="-1"><feGaussianBlur result="blurOut" stdDeviation="2.0"/><feColorMatrix in="blurOut" result="blurOut2" type="matrix" values="0 0 0 0 0 0 0 0 0 0 0 0 0 0 0 0 0 0 .4 0"/><feOffset dx="4.0" dy="4.0" in="blurOut2" result="blurOut3"/><feBlend in="SourceGraphic" in2="blurOut3" mode="normal"/></filter></defs><g><!--MD5=[a8dc8aefce085dae70bec15e302cfec9]
class Builder--><rect codeLine="1" fill="#FEFECE" filter="url(#f11a0x7kyrswdr)" height="112.0234" id="Builder" style="stroke: #A80036; stroke-width: 1.5;" width="207" x="76.5" y="7"/><ellipse cx="154.75" cy="23" fill="#ADD1B2" rx="11" ry="11" style="stroke: #A80036; stroke-width: 1.0;"/><path d="M157.0938,18.6719 C156.1563,18.2344 155.5625,18.0938 154.6875,18.0938 C152.0625,18.0938 150.0625,20.1719 150.0625,22.8906 L150.0625,24.0156 C150.0625,26.5938 152.1719,28.4844 155.0625,28.4844 C156.2813,28.4844 157.4375,28.1875 158.1875,27.6406 C158.7656,27.2344 159.0938,26.7813 159.0938,26.3906 C159.0938,25.9375 158.7031,25.5469 158.2344,25.5469 C158.0156,25.5469 157.8125,25.625 157.625,25.8125 C157.1719,26.2969 157.1719,26.2969 156.9844,26.3906 C156.5625,26.6563 155.875,26.7813 155.1094,26.7813 C153.0625,26.7813 151.7656,25.6875 151.7656,23.9844 L151.7656,22.8906 C151.7656,21.1094 153.0156,19.7969 154.75,19.7969 C155.3281,19.7969 155.9375,19.9531 156.4063,20.2031 C156.8906,20.4844 157.0625,20.7031 157.1563,21.1094 C157.2188,21.5156 157.25,21.6406 157.3906,21.7656 C157.5313,21.9063 157.7656,22.0156 157.9844,22.0156 C158.25,22.0156 158.5156,21.875 158.6875,21.6563 C158.7969,21.5 158.8281,21.3125 158.8281,20.8906 L158.8281,19.4688 C158.8281,19.0313 158.8125,18.9063 158.7188,18.75 C158.5625,18.4844 158.2813,18.3438 157.9844,18.3438 C157.6875,18.3438 157.4844,18.4375 157.2656,18.75 L157.0938,18.6719 Z "/><text fill="#000000" font-family="sans-serif" font-size="12" lengthAdjust="spacingAndGlyphs" textLength="42" x="175.25" y="27.1543">Builder</text><line style="stroke: #A80036; stroke-width: 1.5;" x1="77.5" x2="282.5" y1="39" y2="39"/><polygon fill="none" points="87.5,45,91.5,49,87.5,53,83.5,49" style="stroke: #B38D22; stroke-width: 1.0;"/><text fill="#000000" font-family="sans-serif" font-size="11" lengthAdjust="spacingAndGlyphs" textLength="106" x="96.5" y="53.2104">components: array</text><line style="stroke: #A80036; stroke-width: 1.5;" x1="77.5" x2="282.5" y1="59.8047" y2="59.8047"/><ellipse cx="87.5" cy="70.8047" fill="#84BE84" rx="3" ry="3" style="stroke: #038048; stroke-width: 1.0;"/><text fill="#000000" font-family="sans-serif" font-size="11" lengthAdjust="spacingAndGlyphs" textLength="181" x="96.5" y="74.0151">__construct(array $components)</text><ellipse cx="87.5" cy="83.6094" fill="#84BE84" rx="3" ry="3" style="stroke: #038048; stroke-width: 1.0;"/><text fill="#000000" font-family="sans-serif" font-size="11" lengthAdjust="spacingAndGlyphs" textLength="138" x="96.5" y="86.8198">renderElements(): string</text><ellipse cx="87.5" cy="96.4141" fill="#84BE84" rx="3" ry="3" style="stroke: #038048; stroke-width: 1.0;"/><text fill="#000000" font-family="sans-serif" font-size="11" lengthAdjust="spacingAndGlyphs" textLength="120" x="96.5" y="99.6245">renderStyles(): string</text><ellipse cx="87.5" cy="109.2188" fill="#84BE84" rx="3" ry="3" style="stroke: #038048; stroke-width: 1.0;"/><text fill="#000000" font-family="sans-serif" font-size="11" lengthAdjust="spacingAndGlyphs" textLength="122" x="96.5" y="112.4292">renderScripts(): string</text><!--MD5=[4e13963c9dc916a21a8436ef39422b32]
class Component--><rect codeLine="9" fill="#FEFECE" filter="url(#f11a0x7kyrswdr)" height="137.6328" id="Component" style="stroke: #A80036; stroke-width: 1.5;" width="435" x="295.5" y="179"/><ellipse cx="474.25" cy="195" fill="#ADD1B2" rx="11" ry="11" style="stroke: #A80036; stroke-width: 1.0;"/><path d="M476.5938,190.6719 C475.6563,190.2344 475.0625,190.0938 474.1875,190.0938 C471.5625,190.0938 469.5625,192.1719 469.5625,194.8906 L469.5625,196.0156 C469.5625,198.5938 471.6719,200.4844 474.5625,200.4844 C475.7813,200.4844 476.9375,200.1875 477.6875,199.6406 C478.2656,199.2344 478.5938,198.7813 478.5938,198.3906 C478.5938,197.9375 478.2031,197.5469 477.7344,197.5469 C477.5156,197.5469 477.3125,197.625 477.125,197.8125 C476.6719,198.2969 476.6719,198.2969 476.4844,198.3906 C476.0625,198.6563 475.375,198.7813 474.6094,198.7813 C472.5625,198.7813 471.2656,197.6875 471.2656,195.9844 L471.2656,194.8906 C471.2656,193.1094 472.5156,191.7969 474.25,191.7969 C474.8281,191.7969 475.4375,191.9531 475.9063,192.2031 C476.3906,192.4844 476.5625,192.7031 476.6563,193.1094 C476.7188,193.5156 476.75,193.6406 476.8906,193.7656 C477.0313,193.9063 477.2656,194.0156 477.4844,194.0156 C477.75,194.0156 478.0156,193.875 478.1875,193.6563 C478.2969,193.5 478.3281,193.3125 478.3281,192.8906 L478.3281,191.4688 C478.3281,191.0313 478.3125,190.9063 478.2188,190.75 C478.0625,190.4844 477.7813,190.3438 477.4844,190.3438 C477.1875,190.3438 476.9844,190.4375 476.7656,190.75 L476.5938,190.6719 Z "/><text fill="#000000" font-family="sans-serif" font-size="12" lengthAdjust="spacingAndGlyphs" textLength="69" x="494.75" y="199.1543">Component</text><line style="stroke: #A80036; stroke-width: 1.5;" x1="296.5" x2="729.5" y1="211" y2="211"/><polygon fill="none" points="306.5,217,310.5,221,306.5,225,302.5,221" style="stroke: #B38D22; stroke-width: 1.0;"/><text fill="#000000" font-family="sans-serif" font-size="11" lengthAdjust="spacingAndGlyphs" textLength="104" x="315.5" y="225.2104">element: Element</text><polygon fill="none" points="306.5,229.8047,310.5,233.8047,306.5,237.8047,302.5,233.8047" style="stroke: #B38D22; stroke-width: 1.0;"/><text fill="#000000" font-family="sans-serif" font-size="11" lengthAdjust="spacingAndGlyphs" textLength="65" x="315.5" y="238.0151">style: Style</text><polygon fill="none" points="306.5,242.6094,310.5,246.6094,306.5,250.6094,302.5,246.6094" style="stroke: #B38D22; stroke-width: 1.0;"/><text fill="#000000" font-family="sans-serif" font-size="11" lengthAdjust="spacingAndGlyphs" textLength="67" x="315.5" y="250.8198">script: script</text><line style="stroke: #A80036; stroke-width: 1.5;" x1="296.5" x2="729.5" y1="257.4141" y2="257.4141"/><ellipse cx="306.5" cy="268.4141" fill="#84BE84" rx="3" ry="3" style="stroke: #038048; stroke-width: 1.0;"/><text fill="#000000" font-family="sans-serif" font-size="11" lengthAdjust="spacingAndGlyphs" textLength="409" x="315.5" y="271.6245">__construct(Element $element, Style $style = null, Script $script = null)</text><ellipse cx="306.5" cy="281.2188" fill="#84BE84" rx="3" ry="3" style="stroke: #038048; stroke-width: 1.0;"/><text fill="#000000" font-family="sans-serif" font-size="11" lengthAdjust="spacingAndGlyphs" textLength="132" x="315.5" y="284.4292">renderElement(): string</text><ellipse cx="306.5" cy="294.0234" fill="#84BE84" rx="3" ry="3" style="stroke: #038048; stroke-width: 1.0;"/><text fill="#000000" font-family="sans-serif" font-size="11" lengthAdjust="spacingAndGlyphs" textLength="114" x="315.5" y="297.2339">renderStyle(): string</text><ellipse cx="306.5" cy="306.8281" fill="#84BE84" rx="3" ry="3" style="stroke: #038048; stroke-width: 1.0;"/><text fill="#000000" font-family="sans-serif" font-size="11" lengthAdjust="spacingAndGlyphs" textLength="116" x="315.5" y="310.0386">renderScript(): string</text><!--MD5=[95174e42ee347a14b6cb78d6855f19b5]
class Element--><rect codeLine="19" fill="#FEFECE" filter="url(#f11a0x7kyrswdr)" height="137.6328" id="Element" style="stroke: #A80036; stroke-width: 1.5;" width="342" x="9" y="377"/><ellipse cx="151.75" cy="393" fill="#ADD1B2" rx="11" ry="11" style="stroke: #A80036; stroke-width: 1.0;"/><path d="M154.0938,388.6719 C153.1563,388.2344 152.5625,388.0938 151.6875,388.0938 C149.0625,388.0938 147.0625,390.1719 147.0625,392.8906 L147.0625,394.0156 C147.0625,396.5938 149.1719,398.4844 152.0625,398.4844 C153.2813,398.4844 154.4375,398.1875 155.1875,397.6406 C155.7656,397.2344 156.0938,396.7813 156.0938,396.3906 C156.0938,395.9375 155.7031,395.5469 155.2344,395.5469 C155.0156,395.5469 154.8125,395.625 154.625,395.8125 C154.1719,396.2969 154.1719,396.2969 153.9844,396.3906 C153.5625,396.6563 152.875,396.7813 152.1094,396.7813 C150.0625,396.7813 148.7656,395.6875 148.7656,393.9844 L148.7656,392.8906 C148.7656,391.1094 150.0156,389.7969 151.75,389.7969 C152.3281,389.7969 152.9375,389.9531 153.4063,390.2031 C153.8906,390.4844 154.0625,390.7031 154.1563,391.1094 C154.2188,391.5156 154.25,391.6406 154.3906,391.7656 C154.5313,391.9063 154.7656,392.0156 154.9844,392.0156 C155.25,392.0156 155.5156,391.875 155.6875,391.6563 C155.7969,391.5 155.8281,391.3125 155.8281,390.8906 L155.8281,389.4688 C155.8281,389.0313 155.8125,388.9063 155.7188,388.75 C155.5625,388.4844 155.2813,388.3438 154.9844,388.3438 C154.6875,388.3438 154.4844,388.4375 154.2656,388.75 L154.0938,388.6719 Z "/><text fill="#000000" font-family="sans-serif" font-size="12" lengthAdjust="spacingAndGlyphs" textLength="48" x="172.25" y="397.1543">Element</text><line style="stroke: #A80036; stroke-width: 1.5;" x1="10" x2="350" y1="409" y2="409"/><polygon fill="none" points="20,415,24,419,20,423,16,419" style="stroke: #B38D22; stroke-width: 1.0;"/><text fill="#000000" font-family="sans-serif" font-size="11" lengthAdjust="spacingAndGlyphs" textLength="56" x="29" y="423.2104">tag: string</text><polygon fill="none" points="20,427.8047,24,431.8047,20,435.8047,16,431.8047" style="stroke: #B38D22; stroke-width: 1.0;"/><text fill="#000000" font-family="sans-serif" font-size="11" lengthAdjust="spacingAndGlyphs" textLength="93" x="29" y="436.0151">props: Property[]</text><polygon fill="none" points="20,440.6094,24,444.6094,20,448.6094,16,444.6094" style="stroke: #B38D22; stroke-width: 1.0;"/><text fill="#000000" font-family="sans-serif" font-size="11" lengthAdjust="spacingAndGlyphs" textLength="45" x="29" y="448.8198">children</text><line style="stroke: #A80036; stroke-width: 1.5;" x1="10" x2="350" y1="455.4141" y2="455.4141"/><ellipse cx="20" cy="466.4141" fill="#84BE84" rx="3" ry="3" style="stroke: #038048; stroke-width: 1.0;"/><text fill="#000000" font-family="sans-serif" font-size="11" lengthAdjust="spacingAndGlyphs" textLength="316" x="29" y="469.6245">__construct(string $tag, array $props = [], $children = '')</text><ellipse cx="20" cy="479.2188" fill="#84BE84" rx="3" ry="3" style="stroke: #038048; stroke-width: 1.0;"/><text fill="#000000" font-family="sans-serif" font-size="11" lengthAdjust="spacingAndGlyphs" textLength="90" x="29" y="482.4292">toString(): string</text><ellipse cx="20" cy="492.0234" fill="#84BE84" rx="3" ry="3" style="stroke: #038048; stroke-width: 1.0;"/><text fill="#000000" font-family="sans-serif" font-size="11" lengthAdjust="spacingAndGlyphs" textLength="275" x="29" y="495.2339">getPropertyByName(string $name): null|Property</text><ellipse cx="20" cy="504.8281" fill="#84BE84" rx="3" ry="3" style="stroke: #038048; stroke-width: 1.0;"/><text fill="#000000" font-family="sans-serif" font-size="11" lengthAdjust="spacingAndGlyphs" textLength="74" x="29" y="508.0386">getChildren()</text><!--MD5=[6b626634f3bb0842bebd5e499c80b711]
class Property--><rect codeLine="29" fill="#FEFECE" filter="url(#f11a0x7kyrswdr)" height="124.8281" id="Property" style="stroke: #A80036; stroke-width: 1.5;" width="290" x="35" y="575"/><ellipse cx="150.25" cy="591" fill="#ADD1B2" rx="11" ry="11" style="stroke: #A80036; stroke-width: 1.0;"/><path d="M152.5938,586.6719 C151.6563,586.2344 151.0625,586.0938 150.1875,586.0938 C147.5625,586.0938 145.5625,588.1719 145.5625,590.8906 L145.5625,592.0156 C145.5625,594.5938 147.6719,596.4844 150.5625,596.4844 C151.7813,596.4844 152.9375,596.1875 153.6875,595.6406 C154.2656,595.2344 154.5938,594.7813 154.5938,594.3906 C154.5938,593.9375 154.2031,593.5469 153.7344,593.5469 C153.5156,593.5469 153.3125,593.625 153.125,593.8125 C152.6719,594.2969 152.6719,594.2969 152.4844,594.3906 C152.0625,594.6563 151.375,594.7813 150.6094,594.7813 C148.5625,594.7813 147.2656,593.6875 147.2656,591.9844 L147.2656,590.8906 C147.2656,589.1094 148.5156,587.7969 150.25,587.7969 C150.8281,587.7969 151.4375,587.9531 151.9063,588.2031 C152.3906,588.4844 152.5625,588.7031 152.6563,589.1094 C152.7188,589.5156 152.75,589.6406 152.8906,589.7656 C153.0313,589.9063 153.2656,590.0156 153.4844,590.0156 C153.75,590.0156 154.0156,589.875 154.1875,589.6563 C154.2969,589.5 154.3281,589.3125 154.3281,588.8906 L154.3281,587.4688 C154.3281,587.0313 154.3125,586.9063 154.2188,586.75 C154.0625,586.4844 153.7813,586.3438 153.4844,586.3438 C153.1875,586.3438 152.9844,586.4375 152.7656,586.75 L152.5938,586.6719 Z "/><text fill="#000000" font-family="sans-serif" font-size="12" lengthAdjust="spacingAndGlyphs" textLength="51" x="170.75" y="595.1543">Property</text><line style="stroke: #A80036; stroke-width: 1.5;" x1="36" x2="324" y1="607" y2="607"/><polygon fill="none" points="46,613,50,617,46,621,42,617" style="stroke: #B38D22; stroke-width: 1.0;"/><text fill="#000000" font-family="sans-serif" font-size="11" lengthAdjust="spacingAndGlyphs" textLength="71" x="55" y="621.2104">name: string</text><polygon fill="none" points="46,625.8047,50,629.8047,46,633.8047,42,629.8047" style="stroke: #B38D22; stroke-width: 1.0;"/><text fill="#000000" font-family="sans-serif" font-size="11" lengthAdjust="spacingAndGlyphs" textLength="70" x="55" y="634.0151">value: string</text><line style="stroke: #A80036; stroke-width: 1.5;" x1="36" x2="324" y1="640.6094" y2="640.6094"/><ellipse cx="46" cy="651.6094" fill="#84BE84" rx="3" ry="3" style="stroke: #038048; stroke-width: 1.0;"/><text fill="#000000" font-family="sans-serif" font-size="11" lengthAdjust="spacingAndGlyphs" textLength="264" x="55" y="654.8198">__construct(string $name, string $value = null)</text><ellipse cx="46" cy="664.4141" fill="#84BE84" rx="3" ry="3" style="stroke: #038048; stroke-width: 1.0;"/><text fill="#000000" font-family="sans-serif" font-size="11" lengthAdjust="spacingAndGlyphs" textLength="90" x="55" y="667.6245">toString(): string</text><ellipse cx="46" cy="677.2188" fill="#84BE84" rx="3" ry="3" style="stroke: #038048; stroke-width: 1.0;"/><text fill="#000000" font-family="sans-serif" font-size="11" lengthAdjust="spacingAndGlyphs" textLength="99" x="55" y="680.4292">getName(): string</text><ellipse cx="46" cy="690.0234" fill="#84BE84" rx="3" ry="3" style="stroke: #038048; stroke-width: 1.0;"/><text fill="#000000" font-family="sans-serif" font-size="11" lengthAdjust="spacingAndGlyphs" textLength="98" x="55" y="693.2339">getValue(): string</text><!--MD5=[f84229a7658f804a248f87f24502d86f]
class Style--><rect codeLine="38" fill="#FEFECE" filter="url(#f11a0x7kyrswdr)" height="99.2188" id="Style" style="stroke: #A80036; stroke-width: 1.5;" width="343" x="386.5" y="396.5"/><ellipse cx="538.75" cy="412.5" fill="#ADD1B2" rx="11" ry="11" style="stroke: #A80036; stroke-width: 1.0;"/><path d="M541.0938,408.1719 C540.1563,407.7344 539.5625,407.5938 538.6875,407.5938 C536.0625,407.5938 534.0625,409.6719 534.0625,412.3906 L534.0625,413.5156 C534.0625,416.0938 536.1719,417.9844 539.0625,417.9844 C540.2813,417.9844 541.4375,417.6875 542.1875,417.1406 C542.7656,416.7344 543.0938,416.2813 543.0938,415.8906 C543.0938,415.4375 542.7031,415.0469 542.2344,415.0469 C542.0156,415.0469 541.8125,415.125 541.625,415.3125 C541.1719,415.7969 541.1719,415.7969 540.9844,415.8906 C540.5625,416.1563 539.875,416.2813 539.1094,416.2813 C537.0625,416.2813 535.7656,415.1875 535.7656,413.4844 L535.7656,412.3906 C535.7656,410.6094 537.0156,409.2969 538.75,409.2969 C539.3281,409.2969 539.9375,409.4531 540.4063,409.7031 C540.8906,409.9844 541.0625,410.2031 541.1563,410.6094 C541.2188,411.0156 541.25,411.1406 541.3906,411.2656 C541.5313,411.4063 541.7656,411.5156 541.9844,411.5156 C542.25,411.5156 542.5156,411.375 542.6875,411.1563 C542.7969,411 542.8281,410.8125 542.8281,410.3906 L542.8281,408.9688 C542.8281,408.5313 542.8125,408.4063 542.7188,408.25 C542.5625,407.9844 542.2813,407.8438 541.9844,407.8438 C541.6875,407.8438 541.4844,407.9375 541.2656,408.25 L541.0938,408.1719 Z "/><text fill="#000000" font-family="sans-serif" font-size="12" lengthAdjust="spacingAndGlyphs" textLength="30" x="559.25" y="416.6543">Style</text><line style="stroke: #A80036; stroke-width: 1.5;" x1="387.5" x2="728.5" y1="428.5" y2="428.5"/><polygon fill="none" points="397.5,434.5,401.5,438.5,397.5,442.5,393.5,438.5" style="stroke: #B38D22; stroke-width: 1.0;"/><text fill="#000000" font-family="sans-serif" font-size="11" lengthAdjust="spacingAndGlyphs" textLength="90" x="406.5" y="442.7104">template: string</text><polygon fill="none" points="397.5,447.3047,401.5,451.3047,397.5,455.3047,393.5,451.3047" style="stroke: #B38D22; stroke-width: 1.0;"/><text fill="#000000" font-family="sans-serif" font-size="11" lengthAdjust="spacingAndGlyphs" textLength="104" x="406.5" y="455.5151">element: Element</text><line style="stroke: #A80036; stroke-width: 1.5;" x1="387.5" x2="728.5" y1="462.1094" y2="462.1094"/><ellipse cx="397.5" cy="473.1094" fill="#84BE84" rx="3" ry="3" style="stroke: #038048; stroke-width: 1.0;"/><text fill="#000000" font-family="sans-serif" font-size="11" lengthAdjust="spacingAndGlyphs" textLength="317" x="406.5" y="476.3198">__construct(Element $element, string $template = null)</text><ellipse cx="397.5" cy="485.9141" fill="#84BE84" rx="3" ry="3" style="stroke: #038048; stroke-width: 1.0;"/><text fill="#000000" font-family="sans-serif" font-size="11" lengthAdjust="spacingAndGlyphs" textLength="90" x="406.5" y="489.1245">toString(): string</text><!--MD5=[d0d7b0900e371541ba11cbff692d2bc7]
class Script--><rect codeLine="45" fill="#FEFECE" filter="url(#f11a0x7kyrswdr)" height="99.2188" id="Script" style="stroke: #A80036; stroke-width: 1.5;" width="343" x="764.5" y="396.5"/><ellipse cx="914.25" cy="412.5" fill="#ADD1B2" rx="11" ry="11" style="stroke: #A80036; stroke-width: 1.0;"/><path d="M916.5938,408.1719 C915.6563,407.7344 915.0625,407.5938 914.1875,407.5938 C911.5625,407.5938 909.5625,409.6719 909.5625,412.3906 L909.5625,413.5156 C909.5625,416.0938 911.6719,417.9844 914.5625,417.9844 C915.7813,417.9844 916.9375,417.6875 917.6875,417.1406 C918.2656,416.7344 918.5938,416.2813 918.5938,415.8906 C918.5938,415.4375 918.2031,415.0469 917.7344,415.0469 C917.5156,415.0469 917.3125,415.125 917.125,415.3125 C916.6719,415.7969 916.6719,415.7969 916.4844,415.8906 C916.0625,416.1563 915.375,416.2813 914.6094,416.2813 C912.5625,416.2813 911.2656,415.1875 911.2656,413.4844 L911.2656,412.3906 C911.2656,410.6094 912.5156,409.2969 914.25,409.2969 C914.8281,409.2969 915.4375,409.4531 915.9063,409.7031 C916.3906,409.9844 916.5625,410.2031 916.6563,410.6094 C916.7188,411.0156 916.75,411.1406 916.8906,411.2656 C917.0313,411.4063 917.2656,411.5156 917.4844,411.5156 C917.75,411.5156 918.0156,411.375 918.1875,411.1563 C918.2969,411 918.3281,410.8125 918.3281,410.3906 L918.3281,408.9688 C918.3281,408.5313 918.3125,408.4063 918.2188,408.25 C918.0625,407.9844 917.7813,407.8438 917.4844,407.8438 C917.1875,407.8438 916.9844,407.9375 916.7656,408.25 L916.5938,408.1719 Z "/><text fill="#000000" font-family="sans-serif" font-size="12" lengthAdjust="spacingAndGlyphs" textLength="35" x="934.75" y="416.6543">Script</text><line style="stroke: #A80036; stroke-width: 1.5;" x1="765.5" x2="1106.5" y1="428.5" y2="428.5"/><polygon fill="none" points="775.5,434.5,779.5,438.5,775.5,442.5,771.5,438.5" style="stroke: #B38D22; stroke-width: 1.0;"/><text fill="#000000" font-family="sans-serif" font-size="11" lengthAdjust="spacingAndGlyphs" textLength="90" x="784.5" y="442.7104">template: string</text><polygon fill="none" points="775.5,447.3047,779.5,451.3047,775.5,455.3047,771.5,451.3047" style="stroke: #B38D22; stroke-width: 1.0;"/><text fill="#000000" font-family="sans-serif" font-size="11" lengthAdjust="spacingAndGlyphs" textLength="104" x="784.5" y="455.5151">element: Element</text><line style="stroke: #A80036; stroke-width: 1.5;" x1="765.5" x2="1106.5" y1="462.1094" y2="462.1094"/><ellipse cx="775.5" cy="473.1094" fill="#84BE84" rx="3" ry="3" style="stroke: #038048; stroke-width: 1.0;"/><text fill="#000000" font-family="sans-serif" font-size="11" lengthAdjust="spacingAndGlyphs" textLength="317" x="784.5" y="476.3198">__construct(Element $element, string $template = null)</text><ellipse cx="775.5" cy="485.9141" fill="#84BE84" rx="3" ry="3" style="stroke: #038048; stroke-width: 1.0;"/><text fill="#000000" font-family="sans-serif" font-size="11" lengthAdjust="spacingAndGlyphs" textLength="90" x="784.5" y="489.1245">toString(): string</text><!--MD5=[ad64d3c3b1cc6b2443c8454bfa5de4a3]
link Builder to Component--><path codeLine="52" d="M280.363,119.154 C313.077,137.132 349.859,157.346 384.352,176.302 " fill="none" id="Builder-to-Component" style="stroke: #A80036; stroke-width: 1.0; stroke-dasharray: 7.0,7.0;"/><polygon fill="#A80036" points="388.984,178.847,383.023,171.007,384.6021,176.4389,379.1701,178.018,388.984,178.847" style="stroke: #A80036; stroke-width: 1.0;"/><!--MD5=[94fcc6138aa2e6e61e8910f0155d51e8]
link Builder to Element--><path codeLine="53" d="M170.691,119.401 C166.461,186.012 166.131,298.029 169.7,371.735 " fill="none" id="Builder-to-Element" style="stroke: #A80036; stroke-width: 1.0; stroke-dasharray: 7.0,7.0;"/><polygon fill="#A80036" points="169.964,376.975,173.5064,367.7853,169.7126,371.9813,165.5165,368.1875,169.964,376.975" style="stroke: #A80036; stroke-width: 1.0;"/><!--MD5=[66f65d8a9ca3dda4cfa201c630174cbe]
link Element to Builder--><path codeLine="58" d="M190.627,376.975 C194.596,305.299 194.453,193.465 190.197,124.687 " fill="none" id="Element-to-Builder" style="stroke: #A80036; stroke-width: 1.0; stroke-dasharray: 7.0,7.0;"/><polygon fill="#A80036" points="189.856,119.401,186.443,128.6396,190.1775,124.3907,194.4264,128.1252,189.856,119.401" style="stroke: #A80036; stroke-width: 1.0;"/><!--MD5=[f790427034d5a1eb4883cee40078f022]
link Component to Element--><path codeLine="54" d="M397.467,317.001 C366.045,335.496 331.943,355.568 300.266,374.213 " fill="none" id="Component-to-Element" style="stroke: #A80036; stroke-width: 1.0; stroke-dasharray: 7.0,7.0;"/><polygon fill="#A80036" points="295.61,376.953,305.3952,375.8354,299.9191,374.417,301.3376,368.9408,295.61,376.953" style="stroke: #A80036; stroke-width: 1.0;"/><!--MD5=[de6b360512022d7ea82ab14edbd8e851]
link Component to Style--><path codeLine="55" d="M528.613,317.001 C534.182,341.26 540.375,368.233 545.634,391.139 " fill="none" id="Component-to-Style" style="stroke: #A80036; stroke-width: 1.0; stroke-dasharray: 7.0,7.0;"/><polygon fill="#A80036" points="546.81,396.263,548.6923,386.5957,545.69,391.3901,540.8956,388.3877,546.81,396.263" style="stroke: #A80036; stroke-width: 1.0;"/><!--MD5=[c560ada9828ff3651f23722bcd7f339b]
link Component to Script--><path codeLine="56" d="M659.758,317.001 C714.538,342.384 775.73,370.738 826.572,394.296 " fill="none" id="Component-to-Script" style="stroke: #A80036; stroke-width: 1.0; stroke-dasharray: 7.0,7.0;"/><polygon fill="#A80036" points="831.146,396.415,824.6605,389.003,826.609,394.3136,821.2983,396.2621,831.146,396.415" style="stroke: #A80036; stroke-width: 1.0;"/><!--MD5=[d8d2d09d065cee78c2c743986d9aec55]
link Element to Property--><path codeLine="57" d="M180,515.146 C180,532.84 180,551.88 180,569.514 " fill="none" id="Element-to-Property" style="stroke: #A80036; stroke-width: 1.0; stroke-dasharray: 7.0,7.0;"/><polygon fill="#A80036" points="180,574.938,184,565.938,180,569.938,176,565.938,180,574.938" style="stroke: #A80036; stroke-width: 1.0;"/><!--MD5=[c95a58b209966cda75e43a06b0e4bd0a]
@startuml
class Builder {
    # components: array
    + __construct(array $components)
    + renderElements(): string
    + renderStyles(): string
    + renderScripts(): string
}

class Component {
    # element: Element
    # style: Style
    # script: script
    + __construct(Element $element, Style $style = null, Script $script = null)
    + renderElement(): string
    + renderStyle(): string
    + renderScript(): string
}

class Element {
    # tag: string
    # props: Property[]
    # children
    + __construct(string $tag, array $props = [], $children = '')
    + toString(): string
    + getPropertyByName(string $name): null|Property
    + getChildren()
}

class Property {
    # name: string
    # value: string
    + __construct(string $name, string $value = null)
    + toString(): string
    + getName(): string
    + getValue(): string
}

class Style {
    # template: string
    # element: Element
    + __construct(Element $element, string $template = null)
    + toString(): string
}

class Script {
    # template: string
    # element: Element
    + __construct(Element $element, string $template = null)
    + toString(): string
}

Builder ..> Component
Builder ..> Element
Component ..> Element
Component ..> Style
Component ..> Script
Element ..> Property
Element ..> Builder
@enduml

PlantUML version 1.2020.16(Sun Aug 23 20:20:43 UTC 2020)
(GPL source distribution)
Java Runtime: Java(TM) SE Runtime Environment
JVM: Java HotSpot(TM) 64-Bit Server VM
Default Encoding: UTF-8
Language: en
Country: US
--></g></svg>