<?xml version="1.0" encoding="UTF-8" standalone="no"?><svg xmlns="http://www.w3.org/2000/svg" xmlns:xlink="http://www.w3.org/1999/xlink" contentScriptType="application/ecmascript" contentStyleType="text/css" height="628px" preserveAspectRatio="none" style="width:756px;height:628px;" version="1.1" viewBox="0 0 756 628" width="756px" zoomAndPan="magnify"><defs><filter height="300%" id="fte1o8jz8yese" width="300%" x="-1" y="-1"><feGaussianBlur result="blurOut" stdDeviation="2.0"/><feColorMatrix in="blurOut" result="blurOut2" type="matrix" values="0 0 0 0 0 0 0 0 0 0 0 0 0 0 0 0 0 0 .4 0"/><feOffset dx="4.0" dy="4.0" in="blurOut2" result="blurOut3"/><feBlend in="SourceGraphic" in2="blurOut3" mode="normal"/></filter></defs><g><!--MD5=[a8dc8aefce085dae70bec15e302cfec9]
class Builder--><rect codeLine="1" fill="#FEFECE" filter="url(#fte1o8jz8yese)" height="99.2188" id="Builder" style="stroke: #A80036; stroke-width: 1.5;" width="253" x="162" y="7"/><ellipse cx="263.25" cy="23" fill="#ADD1B2" rx="11" ry="11" style="stroke: #A80036; stroke-width: 1.0;"/><path d="M265.5938,18.6719 C264.6563,18.2344 264.0625,18.0938 263.1875,18.0938 C260.5625,18.0938 258.5625,20.1719 258.5625,22.8906 L258.5625,24.0156 C258.5625,26.5938 260.6719,28.4844 263.5625,28.4844 C264.7813,28.4844 265.9375,28.1875 266.6875,27.6406 C267.2656,27.2344 267.5938,26.7813 267.5938,26.3906 C267.5938,25.9375 267.2031,25.5469 266.7344,25.5469 C266.5156,25.5469 266.3125,25.625 266.125,25.8125 C265.6719,26.2969 265.6719,26.2969 265.4844,26.3906 C265.0625,26.6563 264.375,26.7813 263.6094,26.7813 C261.5625,26.7813 260.2656,25.6875 260.2656,23.9844 L260.2656,22.8906 C260.2656,21.1094 261.5156,19.7969 263.25,19.7969 C263.8281,19.7969 264.4375,19.9531 264.9063,20.2031 C265.3906,20.4844 265.5625,20.7031 265.6563,21.1094 C265.7188,21.5156 265.75,21.6406 265.8906,21.7656 C266.0313,21.9063 266.2656,22.0156 266.4844,22.0156 C266.75,22.0156 267.0156,21.875 267.1875,21.6563 C267.2969,21.5 267.3281,21.3125 267.3281,20.8906 L267.3281,19.4688 C267.3281,19.0313 267.3125,18.9063 267.2188,18.75 C267.0625,18.4844 266.7813,18.3438 266.4844,18.3438 C266.1875,18.3438 265.9844,18.4375 265.7656,18.75 L265.5938,18.6719 Z "/><text fill="#000000" font-family="sans-serif" font-size="12" lengthAdjust="spacingAndGlyphs" textLength="42" x="283.75" y="27.1543">Builder</text><line style="stroke: #A80036; stroke-width: 1.5;" x1="163" x2="414" y1="39" y2="39"/><polygon fill="none" points="173,45,177,49,173,53,169,49" style="stroke: #B38D22; stroke-width: 1.0;"/><text fill="#000000" font-family="sans-serif" font-size="11" lengthAdjust="spacingAndGlyphs" textLength="227" x="182" y="53.2104">children: string[]|Component[]|Element[]</text><line style="stroke: #A80036; stroke-width: 1.5;" x1="163" x2="414" y1="59.8047" y2="59.8047"/><ellipse cx="173" cy="70.8047" fill="#84BE84" rx="3" ry="3" style="stroke: #038048; stroke-width: 1.0;"/><text fill="#000000" font-family="sans-serif" font-size="11" lengthAdjust="spacingAndGlyphs" textLength="138" x="182" y="74.0151">renderElements(): string</text><ellipse cx="173" cy="83.6094" fill="#84BE84" rx="3" ry="3" style="stroke: #038048; stroke-width: 1.0;"/><text fill="#000000" font-family="sans-serif" font-size="11" lengthAdjust="spacingAndGlyphs" textLength="120" x="182" y="86.8198">renderStyles(): string</text><ellipse cx="173" cy="96.4141" fill="#84BE84" rx="3" ry="3" style="stroke: #038048; stroke-width: 1.0;"/><text fill="#000000" font-family="sans-serif" font-size="11" lengthAdjust="spacingAndGlyphs" textLength="122" x="182" y="99.6245">renderScripts(): string</text><!--MD5=[4e13963c9dc916a21a8436ef39422b32]
class Component--><rect codeLine="8" fill="#FEFECE" filter="url(#fte1o8jz8yese)" height="124.8281" id="Component" style="stroke: #A80036; stroke-width: 1.5;" width="158" x="209.5" y="166"/><ellipse cx="250.15" cy="182" fill="#ADD1B2" rx="11" ry="11" style="stroke: #A80036; stroke-width: 1.0;"/><path d="M252.4938,177.6719 C251.5563,177.2344 250.9625,177.0938 250.0875,177.0938 C247.4625,177.0938 245.4625,179.1719 245.4625,181.8906 L245.4625,183.0156 C245.4625,185.5938 247.5719,187.4844 250.4625,187.4844 C251.6813,187.4844 252.8375,187.1875 253.5875,186.6406 C254.1656,186.2344 254.4938,185.7813 254.4938,185.3906 C254.4938,184.9375 254.1031,184.5469 253.6344,184.5469 C253.4156,184.5469 253.2125,184.625 253.025,184.8125 C252.5719,185.2969 252.5719,185.2969 252.3844,185.3906 C251.9625,185.6563 251.275,185.7813 250.5094,185.7813 C248.4625,185.7813 247.1656,184.6875 247.1656,182.9844 L247.1656,181.8906 C247.1656,180.1094 248.4156,178.7969 250.15,178.7969 C250.7281,178.7969 251.3375,178.9531 251.8063,179.2031 C252.2906,179.4844 252.4625,179.7031 252.5563,180.1094 C252.6188,180.5156 252.65,180.6406 252.7906,180.7656 C252.9313,180.9063 253.1656,181.0156 253.3844,181.0156 C253.65,181.0156 253.9156,180.875 254.0875,180.6563 C254.1969,180.5 254.2281,180.3125 254.2281,179.8906 L254.2281,178.4688 C254.2281,178.0313 254.2125,177.9063 254.1188,177.75 C253.9625,177.4844 253.6813,177.3438 253.3844,177.3438 C253.0875,177.3438 252.8844,177.4375 252.6656,177.75 L252.4938,177.6719 Z "/><text fill="#000000" font-family="sans-serif" font-size="12" lengthAdjust="spacingAndGlyphs" textLength="69" x="269.85" y="186.1543">Component</text><line style="stroke: #A80036; stroke-width: 1.5;" x1="210.5" x2="366.5" y1="198" y2="198"/><polygon fill="none" points="220.5,204,224.5,208,220.5,212,216.5,208" style="stroke: #B38D22; stroke-width: 1.0;"/><text fill="#000000" font-family="sans-serif" font-size="11" lengthAdjust="spacingAndGlyphs" textLength="104" x="229.5" y="212.2104">element: Element</text><polygon fill="none" points="220.5,216.8047,224.5,220.8047,220.5,224.8047,216.5,220.8047" style="stroke: #B38D22; stroke-width: 1.0;"/><text fill="#000000" font-family="sans-serif" font-size="11" lengthAdjust="spacingAndGlyphs" textLength="65" x="229.5" y="225.0151">style: Style</text><polygon fill="none" points="220.5,229.6094,224.5,233.6094,220.5,237.6094,216.5,233.6094" style="stroke: #B38D22; stroke-width: 1.0;"/><text fill="#000000" font-family="sans-serif" font-size="11" lengthAdjust="spacingAndGlyphs" textLength="67" x="229.5" y="237.8198">script: script</text><line style="stroke: #A80036; stroke-width: 1.5;" x1="210.5" x2="366.5" y1="244.4141" y2="244.4141"/><ellipse cx="220.5" cy="255.4141" fill="#84BE84" rx="3" ry="3" style="stroke: #038048; stroke-width: 1.0;"/><text fill="#000000" font-family="sans-serif" font-size="11" lengthAdjust="spacingAndGlyphs" textLength="132" x="229.5" y="258.6245">renderElement(): string</text><ellipse cx="220.5" cy="268.2188" fill="#84BE84" rx="3" ry="3" style="stroke: #038048; stroke-width: 1.0;"/><text fill="#000000" font-family="sans-serif" font-size="11" lengthAdjust="spacingAndGlyphs" textLength="114" x="229.5" y="271.4292">renderStyle(): string</text><ellipse cx="220.5" cy="281.0234" fill="#84BE84" rx="3" ry="3" style="stroke: #038048; stroke-width: 1.0;"/><text fill="#000000" font-family="sans-serif" font-size="11" lengthAdjust="spacingAndGlyphs" textLength="116" x="229.5" y="284.2339">renderScript(): string</text><!--MD5=[95174e42ee347a14b6cb78d6855f19b5]
class Element--><rect codeLine="17" fill="#FEFECE" filter="url(#fte1o8jz8yese)" height="86.4141" id="Element" style="stroke: #A80036; stroke-width: 1.5;" width="119" x="9" y="357.5"/><ellipse cx="41.55" cy="373.5" fill="#ADD1B2" rx="11" ry="11" style="stroke: #A80036; stroke-width: 1.0;"/><path d="M43.8938,369.1719 C42.9563,368.7344 42.3625,368.5938 41.4875,368.5938 C38.8625,368.5938 36.8625,370.6719 36.8625,373.3906 L36.8625,374.5156 C36.8625,377.0938 38.9719,378.9844 41.8625,378.9844 C43.0813,378.9844 44.2375,378.6875 44.9875,378.1406 C45.5656,377.7344 45.8938,377.2813 45.8938,376.8906 C45.8938,376.4375 45.5031,376.0469 45.0344,376.0469 C44.8156,376.0469 44.6125,376.125 44.425,376.3125 C43.9719,376.7969 43.9719,376.7969 43.7844,376.8906 C43.3625,377.1563 42.675,377.2813 41.9094,377.2813 C39.8625,377.2813 38.5656,376.1875 38.5656,374.4844 L38.5656,373.3906 C38.5656,371.6094 39.8156,370.2969 41.55,370.2969 C42.1281,370.2969 42.7375,370.4531 43.2063,370.7031 C43.6906,370.9844 43.8625,371.2031 43.9563,371.6094 C44.0188,372.0156 44.05,372.1406 44.1906,372.2656 C44.3313,372.4063 44.5656,372.5156 44.7844,372.5156 C45.05,372.5156 45.3156,372.375 45.4875,372.1563 C45.5969,372 45.6281,371.8125 45.6281,371.3906 L45.6281,369.9688 C45.6281,369.5313 45.6125,369.4063 45.5188,369.25 C45.3625,368.9844 45.0813,368.8438 44.7844,368.8438 C44.4875,368.8438 44.2844,368.9375 44.0656,369.25 L43.8938,369.1719 Z "/><text fill="#000000" font-family="sans-serif" font-size="12" lengthAdjust="spacingAndGlyphs" textLength="48" x="59.45" y="377.6543">Element</text><line style="stroke: #A80036; stroke-width: 1.5;" x1="10" x2="127" y1="389.5" y2="389.5"/><polygon fill="none" points="20,395.5,24,399.5,20,403.5,16,399.5" style="stroke: #B38D22; stroke-width: 1.0;"/><text fill="#000000" font-family="sans-serif" font-size="11" lengthAdjust="spacingAndGlyphs" textLength="56" x="29" y="403.7104">tag: string</text><polygon fill="none" points="20,408.3047,24,412.3047,20,416.3047,16,412.3047" style="stroke: #B38D22; stroke-width: 1.0;"/><text fill="#000000" font-family="sans-serif" font-size="11" lengthAdjust="spacingAndGlyphs" textLength="93" x="29" y="416.5151">props: Property[]</text><line style="stroke: #A80036; stroke-width: 1.5;" x1="10" x2="127" y1="423.1094" y2="423.1094"/><ellipse cx="20" cy="434.1094" fill="#84BE84" rx="3" ry="3" style="stroke: #038048; stroke-width: 1.0;"/><text fill="#000000" font-family="sans-serif" font-size="11" lengthAdjust="spacingAndGlyphs" textLength="90" x="29" y="437.3198">toString(): string</text><!--MD5=[6b626634f3bb0842bebd5e499c80b711]
class Property--><rect codeLine="23" fill="#FEFECE" filter="url(#fte1o8jz8yese)" height="99.2188" id="Property" style="stroke: #A80036; stroke-width: 1.5;" width="147" x="338" y="510"/><ellipse cx="381.8" cy="526" fill="#ADD1B2" rx="11" ry="11" style="stroke: #A80036; stroke-width: 1.0;"/><path d="M384.1438,521.6719 C383.2063,521.2344 382.6125,521.0938 381.7375,521.0938 C379.1125,521.0938 377.1125,523.1719 377.1125,525.8906 L377.1125,527.0156 C377.1125,529.5938 379.2219,531.4844 382.1125,531.4844 C383.3313,531.4844 384.4875,531.1875 385.2375,530.6406 C385.8156,530.2344 386.1438,529.7813 386.1438,529.3906 C386.1438,528.9375 385.7531,528.5469 385.2844,528.5469 C385.0656,528.5469 384.8625,528.625 384.675,528.8125 C384.2219,529.2969 384.2219,529.2969 384.0344,529.3906 C383.6125,529.6563 382.925,529.7813 382.1594,529.7813 C380.1125,529.7813 378.8156,528.6875 378.8156,526.9844 L378.8156,525.8906 C378.8156,524.1094 380.0656,522.7969 381.8,522.7969 C382.3781,522.7969 382.9875,522.9531 383.4563,523.2031 C383.9406,523.4844 384.1125,523.7031 384.2063,524.1094 C384.2688,524.5156 384.3,524.6406 384.4406,524.7656 C384.5813,524.9063 384.8156,525.0156 385.0344,525.0156 C385.3,525.0156 385.5656,524.875 385.7375,524.6563 C385.8469,524.5 385.8781,524.3125 385.8781,523.8906 L385.8781,522.4688 C385.8781,522.0313 385.8625,521.9063 385.7688,521.75 C385.6125,521.4844 385.3313,521.3438 385.0344,521.3438 C384.7375,521.3438 384.5344,521.4375 384.3156,521.75 L384.1438,521.6719 Z "/><text fill="#000000" font-family="sans-serif" font-size="12" lengthAdjust="spacingAndGlyphs" textLength="51" x="402.2" y="530.1543">Property</text><line style="stroke: #A80036; stroke-width: 1.5;" x1="339" x2="484" y1="542" y2="542"/><polygon fill="none" points="349,548,353,552,349,556,345,552" style="stroke: #B38D22; stroke-width: 1.0;"/><text fill="#000000" font-family="sans-serif" font-size="11" lengthAdjust="spacingAndGlyphs" textLength="71" x="358" y="556.2104">name: string</text><polygon fill="none" points="349,560.8047,353,564.8047,349,568.8047,345,564.8047" style="stroke: #B38D22; stroke-width: 1.0;"/><text fill="#000000" font-family="sans-serif" font-size="11" lengthAdjust="spacingAndGlyphs" textLength="70" x="358" y="569.0151">value: string</text><line style="stroke: #A80036; stroke-width: 1.5;" x1="339" x2="484" y1="575.6094" y2="575.6094"/><ellipse cx="349" cy="586.6094" fill="#84BE84" rx="3" ry="3" style="stroke: #038048; stroke-width: 1.0;"/><text fill="#000000" font-family="sans-serif" font-size="11" lengthAdjust="spacingAndGlyphs" textLength="90" x="358" y="589.8198">toString(): string</text><ellipse cx="349" cy="599.4141" fill="#84BE84" rx="3" ry="3" style="stroke: #038048; stroke-width: 1.0;"/><text fill="#000000" font-family="sans-serif" font-size="11" lengthAdjust="spacingAndGlyphs" textLength="121" x="358" y="602.6245">getChildren(): Builder</text><!--MD5=[f84229a7658f804a248f87f24502d86f]
class Style--><rect codeLine="30" fill="#FEFECE" filter="url(#fte1o8jz8yese)" height="99.2188" id="Style" style="stroke: #A80036; stroke-width: 1.5;" width="251" x="163" y="351"/><ellipse cx="269.25" cy="367" fill="#ADD1B2" rx="11" ry="11" style="stroke: #A80036; stroke-width: 1.0;"/><path d="M271.5938,362.6719 C270.6563,362.2344 270.0625,362.0938 269.1875,362.0938 C266.5625,362.0938 264.5625,364.1719 264.5625,366.8906 L264.5625,368.0156 C264.5625,370.5938 266.6719,372.4844 269.5625,372.4844 C270.7813,372.4844 271.9375,372.1875 272.6875,371.6406 C273.2656,371.2344 273.5938,370.7813 273.5938,370.3906 C273.5938,369.9375 273.2031,369.5469 272.7344,369.5469 C272.5156,369.5469 272.3125,369.625 272.125,369.8125 C271.6719,370.2969 271.6719,370.2969 271.4844,370.3906 C271.0625,370.6563 270.375,370.7813 269.6094,370.7813 C267.5625,370.7813 266.2656,369.6875 266.2656,367.9844 L266.2656,366.8906 C266.2656,365.1094 267.5156,363.7969 269.25,363.7969 C269.8281,363.7969 270.4375,363.9531 270.9063,364.2031 C271.3906,364.4844 271.5625,364.7031 271.6563,365.1094 C271.7188,365.5156 271.75,365.6406 271.8906,365.7656 C272.0313,365.9063 272.2656,366.0156 272.4844,366.0156 C272.75,366.0156 273.0156,365.875 273.1875,365.6563 C273.2969,365.5 273.3281,365.3125 273.3281,364.8906 L273.3281,363.4688 C273.3281,363.0313 273.3125,362.9063 273.2188,362.75 C273.0625,362.4844 272.7813,362.3438 272.4844,362.3438 C272.1875,362.3438 271.9844,362.4375 271.7656,362.75 L271.5938,362.6719 Z "/><text fill="#000000" font-family="sans-serif" font-size="12" lengthAdjust="spacingAndGlyphs" textLength="30" x="289.75" y="371.1543">Style</text><line style="stroke: #A80036; stroke-width: 1.5;" x1="164" x2="413" y1="383" y2="383"/><polygon fill="none" points="174,389,178,393,174,397,170,393" style="stroke: #B38D22; stroke-width: 1.0;"/><text fill="#000000" font-family="sans-serif" font-size="11" lengthAdjust="spacingAndGlyphs" textLength="90" x="183" y="397.2104">template: string</text><polygon fill="none" points="174,401.8047,178,405.8047,174,409.8047,170,405.8047" style="stroke: #B38D22; stroke-width: 1.0;"/><text fill="#000000" font-family="sans-serif" font-size="11" lengthAdjust="spacingAndGlyphs" textLength="104" x="183" y="410.0151">element: Element</text><line style="stroke: #A80036; stroke-width: 1.5;" x1="164" x2="413" y1="416.6094" y2="416.6094"/><ellipse cx="174" cy="427.6094" fill="#84BE84" rx="3" ry="3" style="stroke: #038048; stroke-width: 1.0;"/><text fill="#000000" font-family="sans-serif" font-size="11" lengthAdjust="spacingAndGlyphs" textLength="90" x="183" y="430.8198">toString(): string</text><polygon fill="#FFFF44" points="174,435.4141,178,439.4141,174,443.4141,170,439.4141" style="stroke: #B38D22; stroke-width: 1.0;"/><text fill="#000000" font-family="sans-serif" font-size="11" lengthAdjust="spacingAndGlyphs" textLength="225" x="183" y="443.6245">elementChildrenStylesToString(): string</text><!--MD5=[d0d7b0900e371541ba11cbff692d2bc7]
class Script--><rect codeLine="37" fill="#FEFECE" filter="url(#fte1o8jz8yese)" height="99.2188" id="Script" style="stroke: #A80036; stroke-width: 1.5;" width="253" x="449" y="351"/><ellipse cx="553.75" cy="367" fill="#ADD1B2" rx="11" ry="11" style="stroke: #A80036; stroke-width: 1.0;"/><path d="M556.0938,362.6719 C555.1563,362.2344 554.5625,362.0938 553.6875,362.0938 C551.0625,362.0938 549.0625,364.1719 549.0625,366.8906 L549.0625,368.0156 C549.0625,370.5938 551.1719,372.4844 554.0625,372.4844 C555.2813,372.4844 556.4375,372.1875 557.1875,371.6406 C557.7656,371.2344 558.0938,370.7813 558.0938,370.3906 C558.0938,369.9375 557.7031,369.5469 557.2344,369.5469 C557.0156,369.5469 556.8125,369.625 556.625,369.8125 C556.1719,370.2969 556.1719,370.2969 555.9844,370.3906 C555.5625,370.6563 554.875,370.7813 554.1094,370.7813 C552.0625,370.7813 550.7656,369.6875 550.7656,367.9844 L550.7656,366.8906 C550.7656,365.1094 552.0156,363.7969 553.75,363.7969 C554.3281,363.7969 554.9375,363.9531 555.4063,364.2031 C555.8906,364.4844 556.0625,364.7031 556.1563,365.1094 C556.2188,365.5156 556.25,365.6406 556.3906,365.7656 C556.5313,365.9063 556.7656,366.0156 556.9844,366.0156 C557.25,366.0156 557.5156,365.875 557.6875,365.6563 C557.7969,365.5 557.8281,365.3125 557.8281,364.8906 L557.8281,363.4688 C557.8281,363.0313 557.8125,362.9063 557.7188,362.75 C557.5625,362.4844 557.2813,362.3438 556.9844,362.3438 C556.6875,362.3438 556.4844,362.4375 556.2656,362.75 L556.0938,362.6719 Z "/><text fill="#000000" font-family="sans-serif" font-size="12" lengthAdjust="spacingAndGlyphs" textLength="35" x="574.25" y="371.1543">Script</text><line style="stroke: #A80036; stroke-width: 1.5;" x1="450" x2="701" y1="383" y2="383"/><polygon fill="none" points="460,389,464,393,460,397,456,393" style="stroke: #B38D22; stroke-width: 1.0;"/><text fill="#000000" font-family="sans-serif" font-size="11" lengthAdjust="spacingAndGlyphs" textLength="90" x="469" y="397.2104">template: string</text><polygon fill="none" points="460,401.8047,464,405.8047,460,409.8047,456,405.8047" style="stroke: #B38D22; stroke-width: 1.0;"/><text fill="#000000" font-family="sans-serif" font-size="11" lengthAdjust="spacingAndGlyphs" textLength="104" x="469" y="410.0151">element: Element</text><line style="stroke: #A80036; stroke-width: 1.5;" x1="450" x2="701" y1="416.6094" y2="416.6094"/><ellipse cx="460" cy="427.6094" fill="#84BE84" rx="3" ry="3" style="stroke: #038048; stroke-width: 1.0;"/><text fill="#000000" font-family="sans-serif" font-size="11" lengthAdjust="spacingAndGlyphs" textLength="90" x="469" y="430.8198">toString(): string</text><polygon fill="#FFFF44" points="460,435.4141,464,439.4141,460,443.4141,456,439.4141" style="stroke: #B38D22; stroke-width: 1.0;"/><text fill="#000000" font-family="sans-serif" font-size="11" lengthAdjust="spacingAndGlyphs" textLength="227" x="469" y="443.6245">elementChildrenScriptsToString(): string</text><!--MD5=[ad64d3c3b1cc6b2443c8454bfa5de4a3]
link Builder to Component--><path codeLine="44" d="M288.5,106.215 C288.5,123.165 288.5,142.485 288.5,160.646 " fill="none" id="Builder-to-Component" style="stroke: #A80036; stroke-width: 1.0; stroke-dasharray: 7.0,7.0;"/><polygon fill="#A80036" points="288.5,165.734,292.5,156.734,288.5,160.734,284.5,156.734,288.5,165.734" style="stroke: #A80036; stroke-width: 1.0;"/><!--MD5=[94fcc6138aa2e6e61e8910f0155d51e8]
link Builder to Element--><path codeLine="45" d="M240.399,106.15 C223.87,124.154 205.916,145.249 191.5,166 C149.208,226.877 111.247,304.064 89.0331,352.634 " fill="none" id="Builder-to-Element" style="stroke: #A80036; stroke-width: 1.0; stroke-dasharray: 7.0,7.0;"/><polygon fill="#A80036" points="86.9329,357.243,94.3042,350.7112,89.0058,352.6929,87.024,347.3946,86.9329,357.243" style="stroke: #A80036; stroke-width: 1.0;"/><!--MD5=[f790427034d5a1eb4883cee40078f022]
link Component to Element--><path codeLine="46" d="M209.386,290.634 C182.258,311.596 152.402,334.666 127.184,354.153 " fill="none" id="Component-to-Element" style="stroke: #A80036; stroke-width: 1.0; stroke-dasharray: 7.0,7.0;"/><polygon fill="#A80036" points="123.178,357.249,132.7452,354.9104,127.1342,354.1915,127.8532,348.5805,123.178,357.249" style="stroke: #A80036; stroke-width: 1.0;"/><!--MD5=[de6b360512022d7ea82ab14edbd8e851]
link Component to Style--><path codeLine="47" d="M288.5,291.355 C288.5,309.078 288.5,328.255 288.5,345.469 " fill="none" id="Component-to-Style" style="stroke: #A80036; stroke-width: 1.0; stroke-dasharray: 7.0,7.0;"/><polygon fill="#A80036" points="288.5,350.744,292.5,341.744,288.5,345.744,284.5,341.744,288.5,350.744" style="stroke: #A80036; stroke-width: 1.0;"/><!--MD5=[c560ada9828ff3651f23722bcd7f339b]
link Component to Script--><path codeLine="48" d="M367.684,276.403 C405.311,298.691 450.377,325.385 488.91,348.21 " fill="none" id="Component-to-Script" style="stroke: #A80036; stroke-width: 1.0; stroke-dasharray: 7.0,7.0;"/><polygon fill="#A80036" points="493.575,350.973,487.8679,342.9463,489.2724,348.426,483.7926,349.8305,493.575,350.973" style="stroke: #A80036; stroke-width: 1.0;"/><!--MD5=[d8d2d09d065cee78c2c743986d9aec55]
link Element to Property--><path codeLine="49" d="M128.016,440.402 C133.848,443.783 139.739,447.039 145.5,450 C206.753,481.477 279.318,510.5643 333.17,530.6818 " fill="none" id="Element-to-Property" style="stroke: #A80036; stroke-width: 1.0; stroke-dasharray: 7.0,7.0;"/><polygon fill="#A80036" points="337.994,532.4787,330.9568,525.5882,333.3086,530.7331,328.1638,533.0848,337.994,532.4787" style="stroke: #A80036; stroke-width: 1.0;"/><!--MD5=[296950b739d8a37a96808373d0689692]
link Property to Builder--><path codeLine="50" d="M485.136,555.5756 C558.199,548.278 666.678,524.6121 719.5,450 C744.924,414.089 740.071,389.895 719.5,351 C656.747,232.345 522.103,152.68 419.897,106.644 " fill="none" id="Property-to-Builder" style="stroke: #A80036; stroke-width: 1.0; stroke-dasharray: 7.0,7.0;"/><polygon fill="#A80036" points="415.054,104.477,421.6366,111.803,419.6183,106.5184,424.9028,104.5001,415.054,104.477" style="stroke: #A80036; stroke-width: 1.0;"/><!--MD5=[9b5db932d790bece6e030da565ac08c6]
@startuml
class Builder {
    # children: string[]|Component[]|Element[]
    + renderElements(): string
    + renderStyles(): string
    + renderScripts(): string
}

class Component {
    # element: Element
    # style: Style
    # script: script
    + renderElement(): string
    + renderStyle(): string
    + renderScript(): string
}

class Element {
    # tag: string
    # props: Property[]
    + toString(): string
}

class Property {
    # name: string
    # value: string
    + toString(): string
    + getChildren(): Builder
}

class Style {
    # template: string
    # element: Element
    + toString(): string
    # elementChildrenStylesToString(): string
}

class Script {
    # template: string
    # element: Element
    + toString(): string
    # elementChildrenScriptsToString(): string
}

Builder ..> Component
Builder ..> Element
Component ..> Element
Component ..> Style
Component ..> Script
Element ..> Property
Property ..> Builder
@enduml

PlantUML version 1.2020.16beta10(Unknown compile time)
(GPL source distribution)
Java Runtime: Java(TM) SE Runtime Environment
JVM: Java HotSpot(TM) 64-Bit Server VM
Default Encoding: UTF-8
Language: en
Country: US
--></g></svg>